<svg xmlns="http://www.w3.org/2000/svg" xmlns:xlink="http://www.w3.org/1999/xlink" width="500" zoomAndPan="magnify" viewBox="0 0 375 374.999991" height="500" preserveAspectRatio="xMidYMid meet" version="1.0"><defs><clipPath id="eb63075b12"><path d="M 30.304688 24.957031 L 337.5 24.957031 L 337.5 332.152344 L 30.304688 332.152344 Z M 30.304688 24.957031 " clip-rule="nonzero"/></clipPath><clipPath id="375769c1ac"><path d="M 183.902344 24.957031 C 99.070312 24.957031 30.304688 93.726562 30.304688 178.554688 C 30.304688 263.386719 99.070312 332.152344 183.902344 332.152344 C 268.730469 332.152344 337.5 263.386719 337.5 178.554688 C 337.5 93.726562 268.730469 24.957031 183.902344 24.957031 Z M 183.902344 24.957031 " clip-rule="nonzero"/></clipPath><clipPath id="e29cbf5d57"><path d="M 30.304688 24.957031 L 337.804688 24.957031 L 337.804688 332.457031 L 30.304688 332.457031 Z M 30.304688 24.957031 " clip-rule="nonzero"/></clipPath><clipPath id="2692e260a1"><path d="M 184.054688 24.957031 C 99.140625 24.957031 30.304688 93.792969 30.304688 178.707031 C 30.304688 263.621094 99.140625 332.457031 184.054688 332.457031 C 268.96875 332.457031 337.804688 263.621094 337.804688 178.707031 C 337.804688 93.792969 268.96875 24.957031 184.054688 24.957031 Z M 184.054688 24.957031 " clip-rule="nonzero"/></clipPath><clipPath id="c18afc74e4"><path d="M 106 209 L 262 209 L 262 312.089844 L 106 312.089844 Z M 106 209 " clip-rule="nonzero"/></clipPath><clipPath id="1059322690"><path d="M 102.574219 72.089844 L 265.324219 72.089844 L 265.324219 201 L 102.574219 201 Z M 102.574219 72.089844 " clip-rule="nonzero"/></clipPath></defs><g clip-path="url(#eb63075b12)"><g clip-path="url(#375769c1ac)"><path fill="#743737" d="M 30.304688 24.957031 L 337.5 24.957031 L 337.5 332.152344 L 30.304688 332.152344 Z M 30.304688 24.957031 " fill-opacity="1" fill-rule="nonzero"/></g></g><g clip-path="url(#e29cbf5d57)"><g clip-path="url(#2692e260a1)"><path stroke-linecap="butt" transform="matrix(0.750744, 0, 0, 0.750744, 30.303872, 24.956911)" fill="none" stroke-linejoin="miter" d="M 204.797981 0.000159853 C 91.691404 0.000159853 0.00108686 91.690477 0.00108686 204.797054 C 0.00108686 317.903632 91.691404 409.593948 204.797981 409.593948 C 317.904559 409.593948 409.594875 317.903632 409.594875 204.797054 C 409.594875 91.690477 317.904559 0.000159853 204.797981 0.000159853 Z M 204.797981 0.000159853 " stroke="#ffffff" stroke-width="6" stroke-opacity="1" stroke-miterlimit="4"/></g></g><g clip-path="url(#c18afc74e4)"><path fill="#ffffff" d="M 252.460938 230.660156 C 252.460938 218.839844 242.859375 209.230469 231.050781 209.230469 L 136.851562 209.230469 C 125.042969 209.230469 115.441406 218.839844 115.441406 230.660156 C 115.441406 230.8125 115.425781 230.980469 115.410156 231.128906 L 106.878906 308.003906 C 106.996094 310.265625 108.867188 312.089844 111.160156 312.089844 C 113.519531 312.089844 115.441406 310.164062 115.441406 307.804688 C 115.441406 307.636719 115.457031 307.484375 115.476562 307.335938 L 124.003906 230.394531 C 124.140625 223.429688 129.859375 217.804688 136.851562 217.804688 L 231.050781 217.804688 C 238.042969 217.804688 243.761719 223.429688 243.894531 230.394531 L 252.425781 307.335938 C 252.441406 307.484375 252.460938 307.636719 252.460938 307.804688 C 252.460938 310.164062 254.382812 312.089844 256.742188 312.089844 C 259.03125 312.089844 260.90625 310.265625 261.023438 308.003906 L 252.492188 231.128906 C 252.476562 230.980469 252.460938 230.8125 252.460938 230.660156 " fill-opacity="1" fill-rule="nonzero"/></g><g clip-path="url(#1059322690)"><path fill="#ffffff" d="M 256.742188 183.519531 L 141.132812 183.519531 C 134.125 183.519531 128.40625 177.875 128.289062 170.878906 L 119.742188 81.0625 C 119.722656 75.941406 115.878906 72.089844 111.160156 72.089844 C 106.445312 72.089844 102.597656 75.941406 102.597656 80.660156 L 111.144531 178.863281 C 111.160156 191.050781 120.761719 200.660156 132.570312 200.660156 L 256.742188 200.660156 C 261.457031 200.660156 265.304688 196.808594 265.304688 192.089844 C 265.304688 187.367188 261.457031 183.519531 256.742188 183.519531 " fill-opacity="1" fill-rule="nonzero"/></g></svg>