<svg xmlns="http://www.w3.org/2000/svg" xmlns:xlink="http://www.w3.org/1999/xlink" width="500" zoomAndPan="magnify" viewBox="0 0 375 374.999991" height="500" preserveAspectRatio="xMidYMid meet" version="1.0"><defs><g/><clipPath id="3154557cee"><path d="M 128.582031 98.039062 L 246.417969 98.039062 L 246.417969 215.878906 L 128.582031 215.878906 Z M 128.582031 98.039062 " clip-rule="nonzero"/></clipPath><clipPath id="4bc02b24b8"><path d="M 187.5 98.039062 C 154.960938 98.039062 128.582031 124.417969 128.582031 156.957031 C 128.582031 189.5 154.960938 215.878906 187.5 215.878906 C 220.039062 215.878906 246.417969 189.5 246.417969 156.957031 C 246.417969 124.417969 220.039062 98.039062 187.5 98.039062 Z M 187.5 98.039062 " clip-rule="nonzero"/></clipPath><clipPath id="a7985880d6"><path d="M 128.582031 98.039062 L 246.332031 98.039062 L 246.332031 215.789062 L 128.582031 215.789062 Z M 128.582031 98.039062 " clip-rule="nonzero"/></clipPath><clipPath id="e4ebe3ce6f"><path d="M 187.457031 98.039062 C 154.941406 98.039062 128.582031 124.398438 128.582031 156.914062 C 128.582031 189.429688 154.941406 215.789062 187.457031 215.789062 C 219.972656 215.789062 246.332031 189.429688 246.332031 156.914062 C 246.332031 124.398438 219.972656 98.039062 187.457031 98.039062 Z M 187.457031 98.039062 " clip-rule="nonzero"/></clipPath><clipPath id="ce6f6501d8"><path d="M 157 168 L 217 168 L 217 208.371094 L 157 208.371094 Z M 157 168 " clip-rule="nonzero"/></clipPath><clipPath id="a476dec603"><path d="M 156.304688 116.121094 L 218.554688 116.121094 L 218.554688 166 L 156.304688 166 Z M 156.304688 116.121094 " clip-rule="nonzero"/></clipPath></defs><rect x="-37.5" width="450" fill="#ffffff" y="-37.499999" height="449.999989" fill-opacity="1"/><rect x="-37.5" width="450" fill="#ffffff" y="-37.499999" height="449.999989" fill-opacity="1"/><g clip-path="url(#3154557cee)"><g clip-path="url(#4bc02b24b8)"><path fill="#743737" d="M 128.582031 98.039062 L 246.417969 98.039062 L 246.417969 215.878906 L 128.582031 215.878906 Z M 128.582031 98.039062 " fill-opacity="1" fill-rule="nonzero"/></g></g><g clip-path="url(#a7985880d6)"><g clip-path="url(#e4ebe3ce6f)"><path stroke-linecap="butt" transform="matrix(0.749478, 0, 0, 0.749478, 128.580963, 98.03995)" fill="none" stroke-linejoin="miter" d="M 78.556119 -0.00118464 C 35.171746 -0.00118464 0.00142498 35.169136 0.00142498 78.55351 C 0.00142498 121.937883 35.171746 157.108204 78.556119 157.108204 C 121.940493 157.108204 157.110814 121.937883 157.110814 78.55351 C 157.110814 35.169136 121.940493 -0.00118464 78.556119 -0.00118464 Z M 78.556119 -0.00118464 " stroke="#ffffff" stroke-width="6" stroke-opacity="1" stroke-miterlimit="4"/></g></g><g clip-path="url(#ce6f6501d8)"><path fill="#ffffff" d="M 213.632812 177.070312 C 213.632812 172.527344 209.960938 168.832031 205.445312 168.832031 L 169.414062 168.832031 C 164.898438 168.832031 161.226562 172.527344 161.226562 177.070312 C 161.226562 177.128906 161.21875 177.191406 161.210938 177.25 L 157.949219 206.800781 C 157.992188 207.667969 158.710938 208.371094 159.585938 208.371094 C 160.488281 208.371094 161.226562 207.628906 161.226562 206.722656 C 161.226562 206.65625 161.230469 206.601562 161.238281 206.542969 L 164.5 176.96875 C 164.550781 174.289062 166.738281 172.128906 169.414062 172.128906 L 205.445312 172.128906 C 208.117188 172.128906 210.304688 174.289062 210.359375 176.96875 L 213.621094 206.542969 C 213.625 206.601562 213.632812 206.65625 213.632812 206.722656 C 213.632812 207.628906 214.367188 208.371094 215.269531 208.371094 C 216.148438 208.371094 216.863281 207.667969 216.910156 206.800781 L 213.644531 177.25 C 213.640625 177.191406 213.632812 177.128906 213.632812 177.070312 " fill-opacity="1" fill-rule="nonzero"/></g><g clip-path="url(#a476dec603)"><path fill="#ffffff" d="M 215.269531 158.949219 L 171.050781 158.949219 C 168.371094 158.949219 166.183594 156.78125 166.136719 154.089844 L 162.867188 119.570312 C 162.863281 117.601562 161.390625 116.121094 159.585938 116.121094 C 157.78125 116.121094 156.3125 117.601562 156.3125 119.414062 L 159.582031 157.160156 C 159.585938 161.847656 163.257812 165.539062 167.777344 165.539062 L 215.269531 165.539062 C 217.074219 165.539062 218.546875 164.058594 218.546875 162.246094 C 218.546875 160.429688 217.074219 158.949219 215.269531 158.949219 " fill-opacity="1" fill-rule="nonzero"/></g><g fill="#743737" fill-opacity="1"><g transform="translate(149.319422, 254.060009)"><g><path d="M 8.671875 0 L 11.484375 0 L 11.484375 -19.707031 L 19.035156 -19.707031 L 19.035156 -22.398438 L 1.085938 -22.398438 L 1.085938 -19.707031 L 8.671875 -19.707031 Z M 8.671875 0 "/></g></g></g><g fill="#743737" fill-opacity="1"><g transform="translate(171.394457, 254.060009)"><g><path d="M 3.261719 0 L 17.214844 0 L 17.214844 -2.625 L 6.078125 -2.625 L 6.078125 -10.109375 L 16.0625 -10.109375 L 16.0625 -12.703125 L 6.078125 -12.703125 L 6.078125 -19.773438 L 16.863281 -19.773438 L 16.863281 -22.398438 L 3.261719 -22.398438 Z M 3.261719 0 "/></g></g></g><g fill="#743737" fill-opacity="1"><g transform="translate(192.605704, 254.060009)"><g><path d="M 3.261719 0 L 6.078125 0 L 6.078125 -8.03125 L 11.007812 -8.03125 L 16.476562 0 L 19.867188 0 L 14.238281 -8.320312 C 17.5 -9.117188 19.515625 -11.582031 19.515625 -15.199219 C 19.515625 -19.644531 16.445312 -22.398438 11.804688 -22.398438 L 3.261719 -22.398438 Z M 6.078125 -10.71875 L 6.078125 -19.707031 L 11.484375 -19.707031 C 14.75 -19.707031 16.636719 -18.046875 16.636719 -15.199219 C 16.636719 -12.351562 14.75 -10.71875 11.484375 -10.71875 Z M 6.078125 -10.71875 "/></g></g></g><g fill="#743737" fill-opacity="1"><g transform="translate(216.312336, 254.060009)"><g><path d="M 3.261719 0 L 6.078125 0 L 6.078125 -22.398438 L 3.261719 -22.398438 Z M 3.261719 0 "/></g></g></g></svg>